<mxfile host="Electron" agent="Mozilla/5.0 (Macintosh; Intel Mac OS X 10_15_7) AppleWebKit/537.36 (KHTML, like Gecko) draw.io/27.0.5 Chrome/134.0.6998.205 Electron/35.3.0 Safari/537.36" version="27.0.5">
  <diagram name="Page-1" id="13e1069c-82ec-6db2-03f1-153e76fe0fe0">
    <mxGraphModel dx="630" dy="466" grid="1" gridSize="5" guides="1" tooltips="1" connect="1" arrows="1" fold="1" page="1" pageScale="1" pageWidth="413" pageHeight="291" background="none" math="0" shadow="0">
      <root>
        <mxCell id="0" />
        <mxCell id="1" parent="0" />
        <mxCell id="7baba1c4bc27f4b0-2" value="&lt;font style=&quot;font-size: 6px;&quot;&gt;automatching_microservice.mjs&lt;/font&gt;" style="shape=umlLifeline;perimeter=lifelinePerimeter;whiteSpace=wrap;html=1;container=1;collapsible=0;recursiveResize=0;outlineConnect=0;rounded=1;shadow=0;comic=0;labelBackgroundColor=none;strokeWidth=1;fontFamily=Verdana;fontSize=12;align=center;size=20;" parent="1" vertex="1">
          <mxGeometry x="365" y="85" width="100" height="380" as="geometry" />
        </mxCell>
        <mxCell id="TDEUEZQy1v7NWjYbvlac-11" style="edgeStyle=orthogonalEdgeStyle;rounded=0;orthogonalLoop=1;jettySize=auto;html=1;strokeColor=none;" parent="7baba1c4bc27f4b0-2" source="7baba1c4bc27f4b0-10" target="7baba1c4bc27f4b0-2" edge="1">
          <mxGeometry relative="1" as="geometry" />
        </mxCell>
        <mxCell id="7baba1c4bc27f4b0-10" value="" style="html=1;points=[];perimeter=orthogonalPerimeter;rounded=0;shadow=0;comic=0;labelBackgroundColor=none;strokeWidth=1;fontFamily=Verdana;fontSize=12;align=center;" parent="7baba1c4bc27f4b0-2" vertex="1">
          <mxGeometry x="45" y="100" width="10" height="210" as="geometry" />
        </mxCell>
        <mxCell id="TDEUEZQy1v7NWjYbvlac-15" value="" style="curved=1;endArrow=classic;html=1;rounded=0;exitX=0.896;exitY=0.195;exitDx=0;exitDy=0;exitPerimeter=0;entryX=1.023;entryY=0.497;entryDx=0;entryDy=0;entryPerimeter=0;" parent="7baba1c4bc27f4b0-2" source="7baba1c4bc27f4b0-10" target="7baba1c4bc27f4b0-10" edge="1">
          <mxGeometry width="50" height="50" relative="1" as="geometry">
            <mxPoint x="190" y="220" as="sourcePoint" />
            <mxPoint x="240" y="170" as="targetPoint" />
            <Array as="points">
              <mxPoint x="210" y="205" />
            </Array>
          </mxGeometry>
        </mxCell>
        <mxCell id="TDEUEZQy1v7NWjYbvlac-16" value="&lt;font style=&quot;font-size: 6px;&quot;&gt;score, filter,&lt;/font&gt;&lt;div&gt;&lt;font style=&quot;font-size: 6px;&quot;&gt;reduce to max_matches_number&lt;/font&gt;&lt;/div&gt;" style="edgeLabel;html=1;align=left;verticalAlign=middle;resizable=0;points=[];labelBackgroundColor=none;" parent="TDEUEZQy1v7NWjYbvlac-15" vertex="1" connectable="0">
          <mxGeometry x="-0.1423" y="-10" relative="1" as="geometry">
            <mxPoint x="-103" y="-28" as="offset" />
          </mxGeometry>
        </mxCell>
        <mxCell id="7baba1c4bc27f4b0-3" value="&lt;font style=&quot;font-size: 6px;&quot;&gt;MongoDB Atlas&lt;/font&gt;" style="shape=umlLifeline;perimeter=lifelinePerimeter;whiteSpace=wrap;html=1;container=1;collapsible=0;recursiveResize=0;outlineConnect=0;rounded=1;shadow=0;comic=0;labelBackgroundColor=none;strokeWidth=1;fontFamily=Verdana;fontSize=12;align=center;size=20;" parent="1" vertex="1">
          <mxGeometry x="520" y="85" width="100" height="350" as="geometry" />
        </mxCell>
        <mxCell id="7baba1c4bc27f4b0-13" value="" style="html=1;points=[];perimeter=orthogonalPerimeter;rounded=0;shadow=0;comic=0;labelBackgroundColor=none;strokeWidth=1;fontFamily=Verdana;fontSize=12;align=center;" parent="7baba1c4bc27f4b0-3" vertex="1">
          <mxGeometry x="45" y="100" width="10" height="200" as="geometry" />
        </mxCell>
        <mxCell id="7baba1c4bc27f4b0-8" value="&lt;font style=&quot;font-size: 6px;&quot;&gt;NodeJS Main Service or ReactJS&lt;/font&gt;" style="shape=umlLifeline;perimeter=lifelinePerimeter;whiteSpace=wrap;html=1;container=1;collapsible=0;recursiveResize=0;outlineConnect=0;rounded=1;shadow=0;comic=0;labelBackgroundColor=none;strokeWidth=1;fontFamily=Verdana;fontSize=12;align=center;size=20;" parent="1" vertex="1">
          <mxGeometry x="220" y="85" width="100" height="340" as="geometry" />
        </mxCell>
        <mxCell id="7baba1c4bc27f4b0-9" value="" style="html=1;points=[];perimeter=orthogonalPerimeter;rounded=0;shadow=0;comic=0;labelBackgroundColor=none;strokeWidth=1;fontFamily=Verdana;fontSize=12;align=center;" parent="7baba1c4bc27f4b0-8" vertex="1">
          <mxGeometry x="45" y="100" width="10" height="200" as="geometry" />
        </mxCell>
        <mxCell id="7baba1c4bc27f4b0-11" value="&lt;font style=&quot;font-size: 6px;&quot;&gt;POST /automatching_microservice&lt;/font&gt;&lt;div&gt;&lt;font style=&quot;font-size: 6px;&quot;&gt;{&amp;nbsp;&lt;/font&gt;&lt;span style=&quot;font-size: 6px; background-color: transparent; color: light-dark(rgb(0, 0, 0), rgb(255, 255, 255));&quot;&gt;_id_str: &quot;f38ac339c...&quot;,&lt;/span&gt;&lt;/div&gt;&lt;div&gt;&lt;font style=&quot;&quot;&gt;&lt;span style=&quot;font-size: 6px;&quot;&gt;max_matches_number: 10&lt;/span&gt;&lt;/font&gt;&lt;span style=&quot;font-size: 6px; background-color: transparent; color: light-dark(rgb(0, 0, 0), rgb(255, 255, 255));&quot;&gt;}&lt;/span&gt;&lt;/div&gt;" style="html=1;verticalAlign=bottom;endArrow=block;entryX=0;entryY=0;labelBackgroundColor=none;fontFamily=Verdana;fontSize=12;edgeStyle=elbowEdgeStyle;elbow=vertical;" parent="1" source="7baba1c4bc27f4b0-9" target="7baba1c4bc27f4b0-10" edge="1">
          <mxGeometry relative="1" as="geometry">
            <mxPoint x="340" y="195" as="sourcePoint" />
            <mxPoint as="offset" />
          </mxGeometry>
        </mxCell>
        <mxCell id="7baba1c4bc27f4b0-14" value="&lt;font style=&quot;font-size: 6px;&quot;&gt;Profile.find({ _id: { $ne: searching_user_id_str }&amp;nbsp;)&lt;/font&gt;" style="html=1;verticalAlign=bottom;endArrow=block;entryX=0;entryY=0;labelBackgroundColor=none;fontFamily=Verdana;fontSize=12;edgeStyle=elbowEdgeStyle;elbow=vertical;" parent="1" source="7baba1c4bc27f4b0-10" target="7baba1c4bc27f4b0-13" edge="1">
          <mxGeometry x="-0.0034" relative="1" as="geometry">
            <mxPoint x="490" y="205" as="sourcePoint" />
            <mxPoint as="offset" />
          </mxGeometry>
        </mxCell>
        <mxCell id="7baba1c4bc27f4b0-40" value="Main Service&lt;div&gt;or Frontend&lt;/div&gt;" style="shape=note;whiteSpace=wrap;html=1;size=14;verticalAlign=top;align=left;spacingTop=-6;rounded=0;shadow=0;comic=0;labelBackgroundColor=none;strokeWidth=1;fontFamily=Verdana;fontSize=12" parent="1" vertex="1">
          <mxGeometry x="220" y="35" width="100" height="35" as="geometry" />
        </mxCell>
        <mxCell id="7baba1c4bc27f4b0-41" value="Automatching&lt;div&gt;Microservice&lt;/div&gt;" style="shape=note;whiteSpace=wrap;html=1;size=14;verticalAlign=top;align=left;spacingTop=-6;rounded=0;shadow=0;comic=0;labelBackgroundColor=none;strokeWidth=1;fontFamily=Verdana;fontSize=12" parent="1" vertex="1">
          <mxGeometry x="360" y="35" width="100" height="35" as="geometry" />
        </mxCell>
        <mxCell id="7baba1c4bc27f4b0-42" value="MongoDB Profiles Database" style="shape=note;whiteSpace=wrap;html=1;size=14;verticalAlign=top;align=left;spacingTop=-6;rounded=0;shadow=0;comic=0;labelBackgroundColor=none;strokeWidth=1;fontFamily=Verdana;fontSize=12" parent="1" vertex="1">
          <mxGeometry x="505" y="35" width="130" height="35" as="geometry" />
        </mxCell>
        <mxCell id="TDEUEZQy1v7NWjYbvlac-7" style="edgeStyle=orthogonalEdgeStyle;rounded=0;orthogonalLoop=1;jettySize=auto;html=1;dashed=1;" parent="1" edge="1">
          <mxGeometry relative="1" as="geometry">
            <mxPoint x="564.28" y="215.67" as="sourcePoint" />
            <mxPoint x="420" y="215" as="targetPoint" />
          </mxGeometry>
        </mxCell>
        <mxCell id="TDEUEZQy1v7NWjYbvlac-8" value="&lt;font style=&quot;font-size: 6px;&quot;&gt;[{profile1}, {profile2}, {profile3}, ...]&lt;/font&gt;" style="edgeLabel;html=1;align=center;verticalAlign=middle;resizable=0;points=[];labelBackgroundColor=none;" parent="TDEUEZQy1v7NWjYbvlac-7" vertex="1" connectable="0">
          <mxGeometry x="0.6352" y="1" relative="1" as="geometry">
            <mxPoint x="39" y="-11" as="offset" />
          </mxGeometry>
        </mxCell>
        <mxCell id="TDEUEZQy1v7NWjYbvlac-12" value="" style="endArrow=classic;html=1;rounded=0;exitX=0.06;exitY=0.495;exitDx=0;exitDy=0;exitPerimeter=0;dashed=1;" parent="1" source="7baba1c4bc27f4b0-10" target="7baba1c4bc27f4b0-8" edge="1">
          <mxGeometry width="50" height="50" relative="1" as="geometry">
            <mxPoint x="290" y="295" as="sourcePoint" />
            <mxPoint x="280" y="309" as="targetPoint" />
          </mxGeometry>
        </mxCell>
        <mxCell id="TDEUEZQy1v7NWjYbvlac-13" value="&lt;font style=&quot;font-family: Verdana; font-size: 6px;&quot;&gt;POST RESPONSE 201&lt;/font&gt;&lt;div style=&quot;&quot;&gt;&lt;span style=&quot;font-family: Verdana; font-size: 6px;&quot;&gt;[&quot;3f89da3124..&quot;, &quot;&lt;/span&gt;&lt;span style=&quot;font-size: 6px;&quot;&gt;&lt;font face=&quot;Verdana&quot;&gt;c397511b4...&lt;/font&gt;&lt;/span&gt;&lt;span style=&quot;font-family: Verdana; font-size: 6px; color: light-dark(rgb(0, 0, 0), rgb(255, 255, 255));&quot;&gt;&quot;, ...]&lt;/span&gt;&lt;/div&gt;" style="edgeLabel;html=1;align=center;verticalAlign=middle;resizable=0;points=[];labelBackgroundColor=none;" parent="TDEUEZQy1v7NWjYbvlac-12" vertex="1" connectable="0">
          <mxGeometry x="0.0031" y="1" relative="1" as="geometry">
            <mxPoint y="-20" as="offset" />
          </mxGeometry>
        </mxCell>
      </root>
    </mxGraphModel>
  </diagram>
</mxfile>
